# File produced by Open Asset Import Library (http://www.assimp.sf.net)
# (assimp v3.1.113183908)

mtllib Door_Substance%20Painter.mtl

# vertex positions
v -3.966478 0.000000 -0.014476
v 6.022099 0.000000 -0.014476
v 6.022099 0.374028 -0.014476
v -3.966478 0.374028 -0.014476
v 6.022099 0.374028 -8.005338
v -3.966478 0.374028 -8.005338
v 6.022099 0.000000 -8.005338
v -3.966478 0.000000 -8.005338
v 0.045542 0.357958 -1.347651
v 5.328272 0.357958 -1.347651
v 5.328272 0.468939 -1.347651
v 0.045542 0.468939 -1.347651
v 5.328272 0.468939 -6.750666
v 0.045542 0.468939 -6.750666
v 5.328272 0.357958 -6.750666
v 0.045542 0.357958 -6.750666

# UV coordinates
vt 0.307048 0.100604
vt 0.690859 0.044713
vt 0.692952 0.059085
vt 0.309141 0.114976
vt 0.737664 0.366133
vt 0.353854 0.422024
vt 0.739757 0.380505
vt 0.355947 0.436396
vt 0.784470 0.687553
vt 0.400660 0.743444
vt 0.997907 -0.000000
vt 1.000000 0.014372
vt 0.000000 0.145316
vt 0.002093 0.159688
vt 0.221611 0.876947
vt 0.159848 0.692103
vt 0.161982 0.685781
vt 0.219894 0.871800
vt 0.448309 0.755546
vt 0.354734 0.980333
vt 0.452948 0.758691
vt 0.352730 0.986056
vt 0.004784 0.979547
vt 0.000000 0.975637

# vertex normals
vn 0.000000 0.000000 1.000000
vn 0.000000 1.000000 0.000000
vn 0.000000 0.000000 -1.000000
vn 0.000000 -1.000000 0.000000
vn 1.000000 0.000000 0.000000
vn -1.000000 0.000000 0.000000

# Mesh
g pCube1
usemtl lambert1
f 4/4/1 1/1/1 2/2/1
f 2/2/1 3/3/1 4/4/1
f 6/6/2 4/4/2 3/3/2
f 3/3/2 5/5/2 6/6/2
f 8/8/3 6/6/3 5/5/3
f 5/5/3 7/7/3 8/8/3
f 1/10/4 8/8/4 7/7/4
f 7/7/4 2/9/4 1/10/4
f 3/3/5 2/2/5 7/11/5
f 7/11/5 5/12/5 3/3/5
f 6/14/6 8/13/6 1/1/6
f 1/1/6 4/4/6 6/14/6

# Mesh
g pCube2
usemtl lambert1
f 12/18/1 9/15/1 10/16/1
f 10/16/1 11/17/1 12/18/1
f 14/20/2 12/18/2 11/17/2
f 11/17/2 13/19/2 14/20/2
f 16/22/3 14/20/3 13/19/3
f 13/19/3 15/21/3 16/22/3
f 9/15/4 16/22/4 15/23/4
f 15/23/4 10/16/4 9/15/4
f 11/17/5 10/16/5 15/23/5
f 15/23/5 13/24/5 11/17/5
f 14/20/6 16/22/6 9/15/6
f 9/15/6 12/18/6 14/20/6
